<svg width="33" height="33" viewBox="0 0 33 33" fill="none" xmlns="http://www.w3.org/2000/svg">
<path d="M16.992 2.5C14.0756 2.50344 11.2797 3.66347 9.21758 5.72563C7.15543 7.78778 5.9954 10.5837 5.99196 13.5C5.98846 15.8832 6.76694 18.2018 8.20796 20.1C8.20796 20.1 8.50796 20.495 8.55696 20.552L16.992 30.5L25.431 20.547C25.475 20.494 25.776 20.1 25.776 20.1L25.777 20.097C27.2173 18.1996 27.9954 15.8821 27.992 13.5C27.9885 10.5837 26.8285 7.78778 24.7663 5.72563C22.7042 3.66347 19.9083 2.50344 16.992 2.5ZM16.992 8.5C17.5853 8.5 18.1653 8.67595 18.6587 9.00559C19.152 9.33524 19.5365 9.80377 19.7636 10.3519C19.9907 10.9001 20.0501 11.5033 19.9343 12.0853C19.8186 12.6672 19.5328 13.2018 19.1133 13.6213C18.6937 14.0409 18.1592 14.3266 17.5772 14.4424C16.9953 14.5581 16.3921 14.4987 15.8439 14.2716C15.2957 14.0446 14.8272 13.6601 14.4975 13.1667C14.1679 12.6734 13.992 12.0933 13.992 11.5C13.9928 10.7046 14.3091 9.94199 14.8715 9.37956C15.4339 8.81712 16.1966 8.50079 16.992 8.5ZM20.992 19.5H18.992V17.5H14.992V19.5H12.992V17.5C12.9925 16.9697 13.2034 16.4613 13.5783 16.0864C13.9533 15.7114 14.4617 15.5005 14.992 15.5H18.992C19.5222 15.5005 20.0306 15.7114 20.4056 16.0864C20.7805 16.4613 20.9914 16.9697 20.992 17.5V19.5Z" fill="#0A7777"/>
</svg>
